<?xml version="1.0" encoding="UTF-8" standalone="no"?>
<!-- Generator: Adobe Illustrator 16.0.0, SVG Export Plug-In . SVG Version: 6.00 Build 0)  -->

<svg
   xmlns:dc="http://purl.org/dc/elements/1.1/"
   xmlns:cc="http://creativecommons.org/ns#"
   xmlns:rdf="http://www.w3.org/1999/02/22-rdf-syntax-ns#"
   xmlns:svg="http://www.w3.org/2000/svg"
   xmlns="http://www.w3.org/2000/svg"
   xmlns:sodipodi="http://sodipodi.sourceforge.net/DTD/sodipodi-0.dtd"
   xmlns:inkscape="http://www.inkscape.org/namespaces/inkscape"
   version="1.1"
   x="0px"
   y="0px"
   width="361px"
   height="361px"
   viewBox="0 0 361 361"
   style="enable-background:new 0 0 361 361;"
   xml:space="preserve"
   id="svg2"
   inkscape:version="0.91 r13725"
   sodipodi:docname="fts_door.svg"><metadata
     id="metadata20"><rdf:RDF><cc:Work
         rdf:about=""><dc:format>image/svg+xml</dc:format><dc:type
           rdf:resource="http://purl.org/dc/dcmitype/StillImage" /><dc:title></dc:title></cc:Work></rdf:RDF></metadata><defs
     id="defs18" /><sodipodi:namedview
     pagecolor="#000000"
     bordercolor="#666666"
     borderopacity="1"
     objecttolerance="10"
     gridtolerance="10"
     guidetolerance="10"
     inkscape:pageopacity="1"
     inkscape:pageshadow="2"
     inkscape:window-width="1680"
     inkscape:window-height="987"
     id="namedview16"
     showgrid="false"
     inkscape:zoom="0.65373961"
     inkscape:cx="180.5"
     inkscape:cy="180.5"
     inkscape:window-x="-8"
     inkscape:window-y="-8"
     inkscape:window-maximized="1"
     inkscape:current-layer="svg2" /><g
     id="fts_x5F_door"><path
       style="fill:none;stroke:#FFFFFF;stroke-width:10;stroke-miterlimit:10;"
       d="M232.836,280.912   c0,3.406-2.713,6.168-6.059,6.168h-92.89c-3.346,0-6.058-2.762-6.058-6.168V80.816c0-3.406,2.712-6.167,6.058-6.167h92.89   c3.346,0,6.059,2.761,6.059,6.167V280.912z"
       id="path5" /><g
       id="g7"><g
         id="g9"><path
           style="fill:#FFFFFF;"
           d="M129.83,185.667c3.333,0,6.667,0,10,0c6.449,0,6.449-10,0-10c-3.333,0-6.667,0-10,0     C123.381,175.667,123.381,185.667,129.83,185.667L129.83,185.667z"
           id="path11" /></g></g><path
       style="fill:none;stroke:#FFFFFF;stroke-width:10;stroke-miterlimit:10;"
       d="M231.163,280c0-3.313-2.687-6-6-6H133.83   c-3.313,0-6,2.687-6,6v0.667c0,3.313,2.687,6,6,6h91.333c3.313,0,6-2.687,6-6V280z"
       id="path13" /></g><g
     id="Ebene_1" /></svg>