<svg xmlns="http://www.w3.org/2000/svg" xmlns:xlink="http://www.w3.org/1999/xlink" version="1.1" x="0px" y="0px" viewBox="0 0 100 125" enable-background="new 0 0 100 100" xml:space="preserve"><g><g><path d="M73,30.729c0-2.469-1.395-4.519-3.239-4.97c-2.023-9.012-8.878-14.751-18.34-14.751c-9.481,0-16.344,5.764-18.352,14.806    C31.311,26.347,30,28.337,30,30.729c0,2.274,1.192,4.177,2.822,4.816c1.741,9.377,9.417,16.463,18.599,16.463    c9.161,0,16.826-7.053,18.59-16.396C71.728,35.042,73,33.081,73,30.729z M51.421,47.954c-8.256,0-14.973-7.378-14.973-16.446    c0-1.506,0.149-2.92,0.407-4.255c9.375-2.192,10.717-7.229,10.597-10.271c1.471,3.412,5.715,7.928,17.869,7.711    c0.7,2.018,1.072,4.304,1.072,6.814C66.394,40.576,59.677,47.954,51.421,47.954z"/></g><path d="M11,87.024h78v8h6v-32c0-1.657-1.343-3-3-3s-3,1.343-3,3v16.821c-0.284-0.634-0.644-1.299-1.112-1.968   c-1.869-2.671-5.795-5.854-13.888-5.854H29.92c0.047-0.327,0.08-0.659,0.08-1c0-3.859-3.14-7-7-7h-6c-2.548,0-4.775,1.373-6,3.413   V49.022c0-1.657-1.343-3-3-3s-3,1.343-3,3v46.002h6V87.024z M17,68.024h6c1.654,0,3,1.346,3,3s-1.346,3-3,3h-6   c-1.654,0-3-1.346-3-3S15.346,68.024,17,68.024z M11,74.611c1.225,2.04,3.452,3.413,6,3.413h6c1.902,0,3.627-0.765,4.89-2h5.822v5   H11V74.611z"/><g><path d="M51.5,43.007c-2.675,0-5.19-1.162-7.081-3.273c-0.559-0.624-0.559-1.636,0-2.259s1.464-0.623,2.023,0    c1.35,1.508,3.146,2.339,5.058,2.339s3.708-0.831,5.058-2.339c0.559-0.623,1.464-0.623,2.023,0s0.559,1.635,0,2.259    C56.691,41.845,54.176,43.007,51.5,43.007z"/></g><g><circle cx="57" cy="30.008" r="2"/></g><g><circle cx="46" cy="30.008" r="2"/></g></g><text x="0" y="115" fill="#000000" font-size="5px" font-weight="bold" font-family="'Helvetica Neue', Helvetica, Arial-Unicode, Arial, Sans-serif">Created by David Carrero</text><text x="0" y="120" fill="#000000" font-size="5px" font-weight="bold" font-family="'Helvetica Neue', Helvetica, Arial-Unicode, Arial, Sans-serif">from the Noun Project</text></svg>