<?xml version="1.0" encoding="UTF-8" standalone="no"?>
<!-- Generator: Adobe Illustrator 16.0.0, SVG Export Plug-In . SVG Version: 6.00 Build 0)  -->

<svg
   xmlns:osb="http://www.openswatchbook.org/uri/2009/osb"
   xmlns:dc="http://purl.org/dc/elements/1.1/"
   xmlns:cc="http://creativecommons.org/ns#"
   xmlns:rdf="http://www.w3.org/1999/02/22-rdf-syntax-ns#"
   xmlns:svg="http://www.w3.org/2000/svg"
   xmlns="http://www.w3.org/2000/svg"
   xmlns:sodipodi="http://sodipodi.sourceforge.net/DTD/sodipodi-0.dtd"
   xmlns:inkscape="http://www.inkscape.org/namespaces/inkscape"
   version="1.1"
   x="0px"
   y="0px"
   width="4in"
   height="4in"
   viewBox="0 0 359.99999 359.99999"
   xml:space="preserve"
   id="svg2"
   inkscape:version="0.91 r13725"
   sodipodi:docname="fts_door_open.svg"><metadata
     id="metadata20"><rdf:RDF><cc:Work
         rdf:about=""><dc:format>image/svg+xml</dc:format><dc:type
           rdf:resource="http://purl.org/dc/dcmitype/StillImage" /><dc:title></dc:title></cc:Work></rdf:RDF></metadata><defs
     id="defs18"><linearGradient
       id="linearGradient4154"
       osb:paint="solid"><stop
         style="stop-color:#404040;stop-opacity:1;"
         offset="0"
         id="stop4156" /></linearGradient></defs><sodipodi:namedview
     pagecolor="#808080"
     bordercolor="#666666"
     borderopacity="1"
     objecttolerance="10"
     gridtolerance="10"
     guidetolerance="10000"
     inkscape:pageopacity="0"
     inkscape:pageshadow="2"
     inkscape:window-width="1680"
     inkscape:window-height="987"
     id="namedview16"
     showgrid="false"
     units="in"
     inkscape:zoom="5.6568542"
     inkscape:cx="77.145189"
     inkscape:cy="275.95242"
     inkscape:window-x="-8"
     inkscape:window-y="-8"
     inkscape:window-maximized="1"
     inkscape:current-layer="svg2"
     inkscape:document-units="in"
     showguides="true"
     inkscape:guide-bbox="true"><sodipodi:guide
       position="122.68302,256.3262"
       orientation="1,0"
       id="guide4172" /><sodipodi:guide
       position="84.145705,291.68154"
       orientation="0,1"
       id="guide4174" /></sodipodi:namedview><circle
     style="fill:#ffffff;fill-opacity:1;stroke:#ffffff;stroke-width:5.0220542;stroke-miterlimit:4;stroke-dasharray:none;stroke-opacity:1"
     id="path3500"
     cx="180"
     cy="180"
     r="177.48897" /><g
     id="g4165"
     transform="translate(2.6516504,-0.88388348)"><path
       style="fill:none;stroke:#000000;stroke-width:10;stroke-miterlimit:10;stroke-opacity:1"
       d="m 238.607,264.45997 c 0,3.147 -2.506,6.14 -5.598,6.685 l -85.813,15.131 c -3.091,0.545 -5.596,-1.563 -5.596,-4.71 l 0,-184.852997 c 0,-3.146 2.505,-6.139 5.596,-6.684 l 85.813,-15.131 c 3.092,-0.545 5.598,1.564 5.598,4.71 l 0,184.851997 z"
       id="path5"
       inkscape:connector-curvature="0" /><g
       transform="translate(0,-1.0000267)"
       id="g7"
       style="fill:#000000;fill-opacity:1;stroke:#000000;stroke-width:0.99000001;stroke-miterlimit:4;stroke-dasharray:none;stroke-opacity:1"><g
         id="g9"
         style="fill:#000000;fill-opacity:1;stroke:#000000;stroke-width:0.99000001;stroke-miterlimit:4;stroke-dasharray:none;stroke-opacity:1"><path
           style="fill:#000000;fill-opacity:1;stroke:#000000;stroke-width:0.99000001;stroke-miterlimit:4;stroke-dasharray:none;stroke-opacity:1"
           d="m 144.777,194.453 c 3.08,-0.543 6.159,-1.087 9.238,-1.63 2.687,-0.474 4.163,-3.712 3.492,-6.15 -0.773,-2.811 -3.469,-3.966 -6.15,-3.492 -3.08,0.543 -6.159,1.087 -9.238,1.63 -2.687,0.474 -4.163,3.712 -3.492,6.15 0.772,2.81 3.469,3.966 6.15,3.492 l 0,0 z"
           id="path11"
           inkscape:connector-curvature="0" /></g></g><path
       style="fill:none;stroke:#000000;stroke-width:10;stroke-miterlimit:10;stroke-dasharray:none;stroke-opacity:1"
       d="m 238.607,264.69797 c 0,3.147 -2.936,5.698 -6.557,5.698 l -100.522,0 c -3.621,0 -6.556,-2.551 -6.556,-5.698 l 0,-184.851997 c 0,-3.146 2.936,-5.697 6.556,-5.697 l 100.523,0 c 3.621,0 6.557,2.551 6.557,5.697 l 0,184.851997 z"
       id="path13"
       inkscape:connector-curvature="0" /></g><g
     id="Ebene_1"
     transform="translate(0,-1.0000267)" /></svg>