<?xml version="1.0" encoding="UTF-8" standalone="no"?>
<!-- Generator: Adobe Illustrator 16.0.0, SVG Export Plug-In . SVG Version: 6.00 Build 0)  -->

<svg
   xmlns:dc="http://purl.org/dc/elements/1.1/"
   xmlns:cc="http://creativecommons.org/ns#"
   xmlns:rdf="http://www.w3.org/1999/02/22-rdf-syntax-ns#"
   xmlns:svg="http://www.w3.org/2000/svg"
   xmlns="http://www.w3.org/2000/svg"
   xmlns:sodipodi="http://sodipodi.sourceforge.net/DTD/sodipodi-0.dtd"
   xmlns:inkscape="http://www.inkscape.org/namespaces/inkscape"
   version="1.1"
   x="0px"
   y="0px"
   width="4in"
   height="4in"
   viewBox="0 0 359.99997 360.00001"
   xml:space="preserve"
   id="svg2"
   inkscape:version="0.91 r13725"
   sodipodi:docname="fts_door.svg"><metadata
     id="metadata20"><rdf:RDF><cc:Work
         rdf:about=""><dc:format>image/svg+xml</dc:format><dc:type
           rdf:resource="http://purl.org/dc/dcmitype/StillImage" /><dc:title></dc:title></cc:Work></rdf:RDF></metadata><defs
     id="defs18" /><sodipodi:namedview
     pagecolor="#000000"
     bordercolor="#666666"
     borderopacity="1"
     objecttolerance="10"
     gridtolerance="10"
     guidetolerance="10"
     inkscape:pageopacity="0"
     inkscape:pageshadow="2"
     inkscape:window-width="1680"
     inkscape:window-height="987"
     id="namedview16"
     showgrid="false"
     inkscape:zoom="2.8284271"
     inkscape:cx="138.98673"
     inkscape:cy="219.39316"
     inkscape:window-x="-8"
     inkscape:window-y="-8"
     inkscape:window-maximized="1"
     inkscape:current-layer="svg2"
     units="in"
     inkscape:document-units="in"
     showguides="true"
     inkscape:guide-bbox="true"><sodipodi:guide
       position="-32.173356,291.68156"
       orientation="0,1"
       id="guide4179" /><sodipodi:guide
       position="122.32946,239.70921"
       orientation="1,0"
       id="guide4181" /></sodipodi:namedview><g
     id="g4159"
     transform="translate(-0.33251526,0.13535)"><path
       style="fill:none;stroke:#ffffff;stroke-width:10;stroke-miterlimit:10"
       d="m 232.836,279.91215 c 0,3.406 -2.713,6.168 -6.059,6.168 l -92.89,0 c -3.346,0 -6.058,-2.762 -6.058,-6.168 l 0,-200.096 c 0,-3.406 2.712,-6.167 6.058,-6.167 l 92.89,0 c 3.346,0 6.059,2.761 6.059,6.167 l 0,200.096 z"
       id="path5"
       inkscape:connector-curvature="0" /><g
       transform="translate(0,-0.99984998)"
       id="g7"><g
         id="g9"><path
           style="fill:#ffffff"
           d="m 129.83,185.667 c 3.333,0 6.667,0 10,0 6.449,0 6.449,-10 0,-10 -3.333,0 -6.667,0 -10,0 -6.449,0 -6.449,10 0,10 l 0,0 z"
           id="path11"
           inkscape:connector-curvature="0" /></g></g><path
       style="fill:none;stroke:#ffffff;stroke-width:10;stroke-miterlimit:10;stroke-dasharray:none"
       d="m 231.163,279.00015 c 0,-3.313 -2.687,-6 -6,-6 l -91.333,0 c -3.313,0 -6,2.687 -6,6 l 0,0.667 c 0,3.313 2.687,6 6,6 l 91.333,0 c 3.313,0 6,-2.687 6,-6 l 0,-0.667 z"
       id="path13"
       inkscape:connector-curvature="0" /></g><g
     id="Ebene_1"
     transform="translate(0,-0.99984998)" /><circle
     style="fill:none;fill-opacity:1;stroke:#ffffff;stroke-width:5.0220542;stroke-miterlimit:4;stroke-dasharray:none;stroke-opacity:1"
     id="path3500"
     cx="179.99998"
     cy="180"
     r="177.48897" /></svg>