<?xml version="1.0" encoding="UTF-8" standalone="no"?>
<!-- Generator: Adobe Illustrator 16.0.0, SVG Export Plug-In . SVG Version: 6.00 Build 0)  -->

<svg
   xmlns:dc="http://purl.org/dc/elements/1.1/"
   xmlns:cc="http://creativecommons.org/ns#"
   xmlns:rdf="http://www.w3.org/1999/02/22-rdf-syntax-ns#"
   xmlns:svg="http://www.w3.org/2000/svg"
   xmlns="http://www.w3.org/2000/svg"
   xmlns:sodipodi="http://sodipodi.sourceforge.net/DTD/sodipodi-0.dtd"
   xmlns:inkscape="http://www.inkscape.org/namespaces/inkscape"
   version="1.1"
   x="0px"
   y="0px"
   width="4in"
   height="4in"
   viewBox="0 0 359.99999 359.99999"
   xml:space="preserve"
   id="svg2"
   inkscape:version="0.91 r13725"
   sodipodi:docname="jalousie_90.svg"><metadata
     id="metadata69"><rdf:RDF><cc:Work
         rdf:about=""><dc:format>image/svg+xml</dc:format><dc:type
           rdf:resource="http://purl.org/dc/dcmitype/StillImage" /><dc:title /></cc:Work></rdf:RDF></metadata><defs
     id="defs67" /><sodipodi:namedview
     pagecolor="#808080"
     bordercolor="#666666"
     borderopacity="1"
     objecttolerance="10"
     gridtolerance="10"
     guidetolerance="10"
     inkscape:pageopacity="0"
     inkscape:pageshadow="2"
     inkscape:window-width="1680"
     inkscape:window-height="987"
     id="namedview65"
     showgrid="false"
     units="in"
     inkscape:zoom="0.65373961"
     inkscape:cx="-172.08687"
     inkscape:cy="180.5"
     inkscape:window-x="-8"
     inkscape:window-y="-8"
     inkscape:window-maximized="1"
     inkscape:current-layer="svg2" /><g
     id="g4209"><g
       transform="translate(-0.7065,-1.266)"
       id="Fenster_m_Rahmen"><path
         id="Rahmen"
         style="fill:none;stroke:#ffffff;stroke-width:10;stroke-miterlimit:10"
         d="m 279.5,248.734 c 0,3.645 -2.955,6.6 -6.6,6.6 l -184.8,0 c -3.646,0 -6.6,-2.955 -6.6,-6.6 l 0,-118.8 c 0,-3.645 2.955,-6.6 6.6,-6.6 l 184.8,0 c 3.645,0 6.6,2.956 6.6,6.6 l 0,118.8 z"
         inkscape:connector-curvature="0" /><g
         id="Hebel"><g
           id="g8"><path
             style="fill:#ffffff"
             d="m 174.945,194.178 c 3.935,0 7.87,0 11.805,0 6.448,0 6.448,-10 0,-10 -3.935,0 -7.87,0 -11.805,0 -6.448,0 -6.448,10 0,10 l 0,0 z"
             id="path10"
             inkscape:connector-curvature="0" /></g></g><line
         id="Mittelsteg"
         style="fill:none;stroke:#ffffff;stroke-width:10;stroke-miterlimit:10"
         x1="180.71899"
         y1="123.645"
         x2="180.71899"
         y2="252.064" /><path
         id="Sturz"
         style="fill:#ffffff;stroke:#ffffff;stroke-width:10;stroke-miterlimit:10"
         d="m 286.666,124.713 c 0,0.509 -3.164,0.922 -7.066,0.922 l -197.867,0 c -3.903,0 -7.066,-0.414 -7.066,-0.922 l 0,-16.593 c 0,-0.509 3.164,-0.922 7.066,-0.922 l 197.867,0 c 3.902,0 7.066,0.414 7.066,0.922 l 0,16.593 z"
         inkscape:connector-curvature="0" /></g><g
       transform="translate(-0.7065,-1.266)"
       id="_x31_0"><g
         id="g15"><path
           style="fill:#ffffff"
           d="m 75,143.333 c 48.659,0 97.318,0.001 145.976,0.002 21.953,0 43.905,0 65.857,0.001 6.448,0 6.448,-10 0,-10 -48.659,0 -97.317,-0.001 -145.977,-0.002 -21.952,0 -43.905,0 -65.857,-0.001 -6.448,0 -6.448,10 0.001,10 l 0,0 z"
           id="path17"
           inkscape:connector-curvature="0" /></g></g><g
       transform="translate(-0.7065,-1.266)"
       id="_x32_0"><g
         id="g20"><path
           style="fill:#ffffff"
           d="m 75,156.333 c 48.659,0 97.318,0.001 145.976,0.002 21.953,0 43.905,0 65.857,0.001 6.448,0 6.448,-10 0,-10 -48.659,0 -97.317,-0.001 -145.977,-0.002 -21.952,0 -43.905,0 -65.857,-0.001 -6.448,0 -6.448,10 0.001,10 l 0,0 z"
           id="path22"
           inkscape:connector-curvature="0" /></g></g><g
       transform="translate(-0.7065,-1.266)"
       id="_x33_0"><g
         id="g25"><path
           style="fill:#ffffff"
           d="m 75,169.333 c 48.659,0 97.318,0.001 145.976,0.002 21.953,0 43.905,0 65.857,0.001 6.448,0 6.448,-10 0,-10 -48.659,0 -97.317,-0.001 -145.977,-0.002 -21.952,0 -43.905,0 -65.857,-0.001 -6.448,0 -6.448,10 0.001,10 l 0,0 z"
           id="path27"
           inkscape:connector-curvature="0" /></g></g><g
       transform="translate(-0.7065,-1.266)"
       id="_x34_0"><g
         id="g30"><path
           style="fill:#ffffff"
           d="m 75,182.332 c 48.659,0.001 97.318,0.002 145.976,0.003 21.953,0 43.905,0 65.857,0.001 6.448,0 6.448,-10 0,-10 -48.659,0 -97.317,-0.001 -145.977,-0.002 -21.952,0 -43.905,0 -65.857,-0.001 -6.448,0 -6.448,9.999 0.001,9.999 l 0,0 z"
           id="path32"
           inkscape:connector-curvature="0" /></g></g><g
       transform="translate(-0.7065,-1.266)"
       id="_x35_0"><g
         id="g35"><path
           style="fill:#ffffff"
           d="m 75.077,195.178 c 48.659,0.001 97.318,0.002 145.976,0.003 21.953,0 43.905,10e-4 65.857,10e-4 6.448,0 6.448,-10 0,-10 -48.659,-10e-4 -97.317,-0.002 -145.977,-0.003 -21.952,0 -43.905,-0.001 -65.857,-0.001 -6.448,0 -6.448,10 0.001,10 l 0,0 z"
           id="path37"
           inkscape:connector-curvature="0" /></g></g><g
       transform="translate(-0.7065,-1.266)"
       id="_x36_0"><g
         id="g40"><path
           style="fill:#ffffff"
           d="m 75.077,208.178 c 48.659,0.001 97.318,0.002 145.976,0.003 21.953,0 43.905,10e-4 65.857,10e-4 6.448,0 6.448,-10 0,-10 -48.659,-10e-4 -97.317,-0.002 -145.977,-0.003 -21.952,0 -43.905,-0.001 -65.857,-0.001 -6.448,0 -6.448,10 0.001,10 l 0,0 z"
           id="path42"
           inkscape:connector-curvature="0" /></g></g><g
       transform="translate(-0.7065,-1.266)"
       id="_x37_0"><g
         id="g45"><path
           style="fill:#ffffff"
           d="m 75.077,221.178 c 48.659,0.001 97.318,0.002 145.976,0.003 21.953,0 43.905,10e-4 65.857,10e-4 6.448,0 6.448,-10 0,-10 -48.659,-10e-4 -97.317,-0.002 -145.977,-0.003 -21.952,0 -43.905,-0.001 -65.857,-0.001 -6.448,0 -6.448,10 0.001,10 l 0,0 z"
           id="path47"
           inkscape:connector-curvature="0" /></g></g><g
       transform="translate(-0.7065,-1.266)"
       id="_x38_0"><g
         id="g50"><path
           style="fill:#ffffff"
           d="m 75.077,234.178 c 48.659,0.001 97.318,0.002 145.976,0.003 21.953,0 43.905,10e-4 65.857,10e-4 6.448,0 6.448,-10 0,-10 -48.659,-10e-4 -97.317,-0.002 -145.977,-0.003 -21.952,0 -43.905,-0.001 -65.857,-0.001 -6.448,0 -6.448,10 0.001,10 l 0,0 z"
           id="path52"
           inkscape:connector-curvature="0" /></g></g><g
       transform="translate(-0.7065,-1.266)"
       id="_x39_0"><g
         id="g55"><path
           style="fill:#ffffff"
           d="m 75.077,247.178 c 48.659,0.001 97.318,0.002 145.976,0.003 21.953,0 43.905,10e-4 65.857,10e-4 6.448,0 6.448,-10 0,-10 -48.659,-10e-4 -97.317,-0.002 -145.977,-0.003 -21.952,0 -43.905,-0.001 -65.857,-0.001 -6.448,0 -6.448,10 0.001,10 l 0,0 z"
           id="path57"
           inkscape:connector-curvature="0" /></g></g></g><g
     id="Ebene_1"
     transform="translate(0,-1.0000267)" /><circle
     style="fill:none;fill-opacity:1;stroke:#ffffff;stroke-width:5.0220542;stroke-miterlimit:4;stroke-dasharray:none;stroke-opacity:1"
     id="path3500"
     cx="180"
     cy="180"
     r="177.48897" /></svg>