<?xml version='1.0' encoding='iso-8859-1'?>
<!DOCTYPE svg PUBLIC '-//W3C//DTD SVG 1.1//EN' 'http://www.w3.org/Graphics/SVG/1.1/DTD/svg11.dtd'>
<svg version="1.1" xmlns="http://www.w3.org/2000/svg" viewBox="0 0 297 297" xmlns:xlink="http://www.w3.org/1999/xlink" enable-background="new 0 0 297 297">
  <g>
    <path d="m169.441,233.041c3.203-3.201 3.203-8.393 0.001-11.595-3.202-3.202-8.394-3.202-11.595-0.001-5.161,5.16-13.557,5.16-18.719,0-3.2-3.2-8.394-3.201-11.594,0.001-3.202,3.202-3.202,8.393 0.001,11.595 5.775,5.776 13.364,8.664 20.952,8.664 7.59,2.84217e-14 15.179-2.888 20.954-8.664z"/>
    <path d="m110.862,240.091c-3.202,3.201-3.203,8.392-0.001,11.595 10.049,10.052 23.411,15.588 37.626,15.588s27.577-5.536 37.628-15.588c3.202-3.202 3.202-8.393-0.001-11.595-3.2-3.2-8.394-3.202-11.595,0.001-6.953,6.953-16.198,10.783-26.032,10.783s-19.078-3.83-26.03-10.783c-3.201-3.203-8.393-3.203-11.595-0.001z"/>
    <path d="m195.265,261.176c-12.497,12.528-29.11,19.427-46.781,19.426-17.669-0.001-34.279-6.898-46.771-19.425-3.197-3.206-8.391-3.213-11.595-0.017-3.206,3.198-3.213,8.39-0.016,11.596 15.591,15.633 36.324,24.242 58.382,24.244 0.001,0 0.002,0 0.003,0 22.058,0 42.793-8.609 58.387-24.244 3.198-3.206 3.191-8.397-0.014-11.594-3.206-3.198-8.397-3.191-11.595,0.014z"/>
    <path d="m247.261,161.786c-0.328-50.917-39.382-92.811-89.124-97.654v-54.486c0-5.327-4.319-9.646-9.646-9.646-5.326,0-9.646,4.318-9.646,9.646v54.487c-49.953,4.864-89.127,47.092-89.127,98.301 0,5.326 4.319,9.646 9.646,9.646h42.262c4.475,21.772 23.787,38.196 46.864,38.196 23.077,0 42.391-16.424 46.865-38.196h42.262c0.008,0 0.015,0 0.018,0 5.328,0 9.646-4.319 9.646-9.646 0.001-0.218-0.006-0.434-0.02-0.648zm-98.771,29.198c-12.358,0-22.905-7.896-26.87-18.905h53.741c-3.965,11.01-14.511,18.905-26.871,18.905zm-78.898-38.196c4.773-39.295 38.336-69.835 78.898-69.835 40.563,0 74.125,30.54 78.899,69.835h-157.797z"/>
  </g>
</svg>
