<?xml version="1.0" encoding="UTF-8" standalone="no"?>
<!-- Generator: Adobe Illustrator 16.0.0, SVG Export Plug-In . SVG Version: 6.00 Build 0)  -->

<svg
   xmlns:dc="http://purl.org/dc/elements/1.1/"
   xmlns:cc="http://creativecommons.org/ns#"
   xmlns:rdf="http://www.w3.org/1999/02/22-rdf-syntax-ns#"
   xmlns:svg="http://www.w3.org/2000/svg"
   xmlns="http://www.w3.org/2000/svg"
   xmlns:sodipodi="http://sodipodi.sourceforge.net/DTD/sodipodi-0.dtd"
   xmlns:inkscape="http://www.inkscape.org/namespaces/inkscape"
   version="1.1"
   x="0px"
   y="0px"
   width="4in"
   height="4in"
   viewBox="0 0 359.99999 359.99999"
   xml:space="preserve"
   id="svg3336"
   inkscape:version="0.91 r13725"
   sodipodi:docname="light_dim_100_not_highlighted.svg"><metadata
     id="metadata3498"><rdf:RDF><cc:Work
         rdf:about=""><dc:format>image/svg+xml</dc:format><dc:type
           rdf:resource="http://purl.org/dc/dcmitype/StillImage" /><dc:title></dc:title></cc:Work></rdf:RDF></metadata><defs
     id="defs3496" /><sodipodi:namedview
     pagecolor="#000000"
     bordercolor="#666666"
     borderopacity="1"
     objecttolerance="10"
     gridtolerance="10"
     guidetolerance="10"
     inkscape:pageopacity="0"
     inkscape:pageshadow="2"
     inkscape:window-width="1680"
     inkscape:window-height="987"
     id="namedview3494"
     showgrid="false"
     units="in"
     inkscape:document-units="in"
     inkscape:zoom="2.1883657"
     inkscape:cx="169.32106"
     inkscape:cy="180.5"
     inkscape:window-x="-8"
     inkscape:window-y="-8"
     inkscape:window-maximized="1"
     inkscape:current-layer="svg3336" /><path
     inkscape:connector-curvature="0"
     id="path3485"
     d="m 199.378,207.61799 c 0,4.696 -4.03,8.504 -9.003,8.504 l -18.853,0 c -4.973,0 -9.003,-3.808 -9.003,-8.504 l 0,-60.492 c 0,-4.697 4.031,-8.504 9.003,-8.504 l 18.853,0 c 4.973,0 9.003,3.807 9.003,8.504 l 0,60.492 z"
     style="display:none;fill:#ffffff" /><g
     id="g4379"
     transform="translate(0,-1.0000134)"><g
       id="g3339"><g
         id="g3341"><path
           style="fill:#ffffff"
           d="m 161.189,248.056 c 12.286,2.099 24.573,4.196 36.859,6.295 6.306,1.077 9.006,-8.559 2.658,-9.643 -12.286,-2.099 -24.573,-4.196 -36.859,-6.295 -6.305,-1.077 -9.005,8.559 -2.658,9.643 l 0,0 z"
           id="path3343"
           inkscape:connector-curvature="0" /></g></g><g
       id="g3345"><g
         id="g3347"><path
           style="fill:#ffffff"
           d="m 161.568,261.306 c 12.286,2.099 24.572,4.196 36.858,6.295 6.306,1.077 9.006,-8.559 2.658,-9.643 -12.286,-2.099 -24.572,-4.196 -36.858,-6.295 -6.305,-1.077 -9.005,8.559 -2.658,9.643 l 0,0 z"
           id="path3349"
           inkscape:connector-curvature="0" /></g></g><g
       id="g3351"><g
         id="g3353"><path
           style="fill:#ffffff"
           d="m 161.568,274.178 c 12.286,2.098 24.572,4.196 36.858,6.294 6.306,1.077 9.006,-8.559 2.658,-9.643 -12.286,-2.098 -24.572,-4.196 -36.858,-6.294 -6.305,-1.077 -9.005,8.559 -2.658,9.643 l 0,0 z"
           id="path3355"
           inkscape:connector-curvature="0" /></g></g><g
       id="g3357"><g
         id="g3359"><path
           style="fill:#ffffff"
           d="m 169.414,287.919 c 6.895,1.177 13.79,2.354 20.685,3.531 6.306,1.076 9.006,-8.56 2.658,-9.643 -6.895,-1.177 -13.79,-2.354 -20.685,-3.531 -6.306,-1.076 -9.006,8.56 -2.658,9.643 l 0,0 z"
           id="path3361"
           inkscape:connector-curvature="0" /></g></g><g
       id="g3363"><g
         id="g3365"><path
           style="fill:#ffffff"
           d="m 207.144,212.143 c -0.341,9.681 -8.01,13.822 -16.692,13.822 -7.013,0 -14.026,0 -21.039,0 -8.104,0 -15.012,-5.457 -15.012,-13.996 0,-4.135 0,-8.271 0,-12.405 0,-15.173 0,-30.345 0,-45.517 0,-3.714 -0.417,-7.771 0.237,-11.456 1.636,-9.222 9.999,-11.199 17.885,-11.199 5.5,0 11,0 16.499,0 5.02,0 9.565,0.06 13.623,3.612 6.159,5.392 4.5,15.458 4.5,22.791 -0.001,18.115 -0.001,36.231 -0.001,54.348 0,6.448 10,6.448 10,0 0,-22.303 0,-44.605 0,-66.908 0,-10.783 -7.24,-19.668 -17.282,-22.934 -6.056,-1.969 -13.839,-0.909 -20.08,-0.909 -6.753,0 -14.117,-0.791 -20.507,1.785 -8.985,3.62 -14.875,12.547 -14.875,22.212 0,22.245 0,44.489 0,66.734 0,10.43 6.662,18.748 16.059,22.535 5.704,2.298 13.314,1.307 19.323,1.307 6.218,0 12.671,0.497 18.821,-0.595 11.008,-1.952 18.168,-12.63 18.541,-23.228 0.226,-6.452 -9.775,-6.429 -10,0.001 z"
           id="path3367"
           inkscape:connector-curvature="0" /></g></g><g
       id="g3369"><g
         id="g3371"><path
           style="fill:#ffffff"
           d="m 89.125,142.333 c 9.638,0 19.275,0 28.913,0 6.449,0 6.449,-10 0,-10 -9.638,0 -19.275,0 -28.913,0 -6.448,0 -6.448,10 0,10 l 0,0 z"
           id="path3373"
           inkscape:connector-curvature="0" /></g></g><g
       id="g3375"><g
         id="g3377"><path
           style="fill:#ffffff"
           d="m 103.853,86.528 c 6.815,6.814 13.63,13.629 20.444,20.444 4.564,4.563 11.635,-2.507 7.071,-7.071 -6.815,-6.814 -13.63,-13.629 -20.444,-20.444 -4.564,-4.564 -11.634,2.507 -7.071,7.071 l 0,0 z"
           id="path3379"
           inkscape:connector-curvature="0" /></g></g><g
       id="g3381"><g
         id="g3383"><path
           style="fill:#ffffff"
           d="m 250.742,79.457 c -6.815,6.815 -13.63,13.63 -20.444,20.444 -4.564,4.564 2.507,11.635 7.07,7.071 6.815,-6.815 13.63,-13.63 20.444,-20.444 4.565,-4.564 -2.506,-11.635 -7.07,-7.071 l 0,0 z"
           id="path3385"
           inkscape:connector-curvature="0" /></g></g><g
       id="g3387"><g
         id="g3389"><path
           style="fill:#ffffff"
           d="m 89.125,183.372 c 9.638,0 19.275,0 28.913,0 6.449,0 6.449,-10 0,-10 -9.638,0 -19.275,0 -28.913,0 -6.448,0 -6.448,10 0,10 l 0,0 z"
           id="path3391"
           inkscape:connector-curvature="0" /></g></g><g
       id="g3393"><g
         id="g3395"><path
           style="fill:#ffffff"
           d="m 244.016,142.128 c 9.638,0 19.275,0 28.913,0 6.448,0 6.448,-10 0,-10 -9.638,0 -19.275,0 -28.913,0 -6.449,0 -6.449,10 0,10 l 0,0 z"
           id="path3397"
           inkscape:connector-curvature="0" /></g></g><g
       id="g3399"><g
         id="g3401"><path
           style="fill:#ffffff"
           d="m 244.016,183.166 c 9.638,0 19.275,0 28.913,0 6.448,0 6.448,-10 0,-10 -9.638,0 -19.275,0 -28.913,0 -6.449,0 -6.449,10 0,10 l 0,0 z"
           id="path3403"
           inkscape:connector-curvature="0" /></g></g><g
       id="g3405"><g
         id="g3407"><path
           style="fill:#ffffff"
           d="m 154.833,74.702 c 0,6.393 0,12.786 0,19.179 0,6.449 10,6.449 10,0 0,-6.393 0,-12.786 0,-19.179 0,-6.449 -10,-6.449 -10,0 l 0,0 z"
           id="path3409"
           inkscape:connector-curvature="0" /></g></g><g
       id="g3411"><g
         id="g3413"><path
           style="fill:#ffffff"
           d="m 89.125,224.41 c 9.638,0 19.275,0 28.913,0 6.449,0 6.449,-10 0,-10 -9.638,0 -19.275,0 -28.913,0 -6.448,0 -6.448,10 0,10 l 0,0 z"
           id="path3415"
           inkscape:connector-curvature="0" /></g></g><g
       id="g3417"><g
         id="g3419"><path
           style="fill:#ffffff"
           d="m 244.016,224.205 c 9.638,0 19.275,0 28.913,0 6.448,0 6.448,-10 0,-10 -9.638,0 -19.275,0 -28.913,0 -6.449,0 -6.449,10 0,10 l 0,0 z"
           id="path3421"
           inkscape:connector-curvature="0" /></g></g><g
       id="g3423"><g
         id="g3425"><g
           id="g3427"><path
             style="fill:#ffffff"
             d="m 199.956,84.33 c 0,3.197 0,6.393 0,9.59 0,1.935 3,1.935 3,0 0,-3.197 0,-6.393 0,-9.59 0,-1.934 -3,-1.934 -3,0 l 0,0 z"
             id="path3429"
             inkscape:connector-curvature="0" /></g></g><g
         id="g3431"><g
           id="g3433"><path
             style="fill:#ffffff"
             d="m 103.64,138.833 c 4.819,0 9.638,0 14.457,0 1.935,0 1.935,-3 0,-3 -4.819,0 -9.638,0 -14.457,0 -1.935,0 -1.935,3 0,3 l 0,0 z"
             id="path3435"
             inkscape:connector-curvature="0" /></g></g><g
         id="g3437"><g
           id="g3439"><path
             style="fill:#ffffff"
             d="m 118.313,95.98 c 2.839,2.839 5.678,5.678 8.517,8.517 1.369,1.369 3.49,-0.752 2.121,-2.121 -2.839,-2.839 -5.678,-5.678 -8.517,-8.517 -1.369,-1.369 -3.49,0.752 -2.121,2.121 l 0,0 z"
             id="path3441"
             inkscape:connector-curvature="0" /></g></g><g
         id="g3443"><g
           id="g3445"><path
             style="fill:#ffffff"
             d="m 242.386,92.82 c -3.186,3.185 -6.37,6.37 -9.556,9.556 -1.369,1.369 0.752,3.49 2.121,2.121 3.186,-3.185 6.37,-6.37 9.556,-9.556 1.369,-1.369 -0.752,-3.49 -2.121,-2.121 l 0,0 z"
             id="path3447"
             inkscape:connector-curvature="0" /></g></g><g
         id="g3449"><g
           id="g3451"><path
             style="fill:#ffffff"
             d="m 103.64,179.872 c 4.819,0 9.638,0 14.457,0 1.935,0 1.935,-3 0,-3 -4.819,0 -9.638,0 -14.457,0 -1.935,0 -1.935,3 0,3 l 0,0 z"
             id="path3453"
             inkscape:connector-curvature="0" /></g></g><g
         id="g3455"><g
           id="g3457"><path
             style="fill:#ffffff"
             d="m 244.073,138.628 c 4.818,0 9.638,0 14.456,0 1.935,0 1.935,-3 0,-3 -4.818,0 -9.638,0 -14.456,0 -1.934,0 -1.934,3 0,3 l 0,0 z"
             id="path3459"
             inkscape:connector-curvature="0" /></g></g><g
         id="g3461"><g
           id="g3463"><path
             style="fill:#ffffff"
             d="m 244.073,179.666 c 4.818,0 9.638,0 14.456,0 1.935,0 1.935,-3 0,-3 -4.818,0 -9.638,0 -14.456,0 -1.934,0 -1.934,3 0,3 l 0,0 z"
             id="path3465"
             inkscape:connector-curvature="0" /></g></g><g
         id="g3467"><g
           id="g3469"><path
             style="fill:#ffffff"
             d="m 158.391,84.291 c 0,3.197 0,6.393 0,9.59 0,1.935 3,1.935 3,0 0,-3.197 0,-6.393 0,-9.59 0,-1.935 -3,-1.935 -3,0 l 0,0 z"
             id="path3471"
             inkscape:connector-curvature="0" /></g></g><g
         id="g3473"><g
           id="g3475"><path
             style="fill:#ffffff"
             d="m 103.64,220.91 c 4.819,0 9.638,0 14.457,0 1.935,0 1.935,-3 0,-3 -4.819,0 -9.638,0 -14.457,0 -1.935,0 -1.935,3 0,3 l 0,0 z"
             id="path3477"
             inkscape:connector-curvature="0" /></g></g><g
         id="g3479"><g
           id="g3481"><path
             style="fill:#ffffff"
             d="m 244.073,220.705 c 4.818,0 9.638,0 14.456,0 1.935,0 1.935,-3 0,-3 -4.818,0 -9.638,0 -14.456,0 -1.934,0 -1.934,3 0,3 l 0,0 z"
             id="path3483"
             inkscape:connector-curvature="0" /></g></g></g><g
       id="g3487"><g
         id="g3489"><path
           style="fill:#ffffff"
           d="m 196.398,74.741 c 0,6.393 0,12.786 0,19.179 0,6.449 10,6.449 10,0 0,-6.393 0,-12.786 0,-19.179 0,-6.449 -10,-6.449 -10,0 l 0,0 z"
           id="path3491"
           inkscape:connector-curvature="0" /></g></g></g><g
     id="Ebene_1"
     transform="translate(0,-1.0000134)" /><circle
     style="fill:none;fill-opacity:1;stroke:#ffffff;stroke-width:10.11514568;stroke-miterlimit:4;stroke-dasharray:none;stroke-opacity:1"
     id="path3500"
     cx="180"
     cy="180"
     r="174.94243" /></svg>