<svg xmlns="http://www.w3.org/2000/svg" xmlns:xlink="http://www.w3.org/1999/xlink" version="1.1" x="0px" y="0px" viewBox="0 0 100 125" enable-background="new 0 0 100 100" xml:space="preserve"><g display="none"><rect x="5" y="5" display="inline" fill="none" stroke="#000000" stroke-width="0.02" stroke-miterlimit="10" width="90" height="90.001"/></g><g><path fill="none" stroke="#000000" stroke-width="3" stroke-linecap="round" stroke-linejoin="round" stroke-miterlimit="10" d="   M29.505,73.997"/><path d="M93.05,89.2c-0.524-0.196-10.382-3.822-27.054-5.432V72.845C82.253,71.459,95,59.493,95,44.981   c0-7.665-3.494-17.399-9.12-25.403C79.264,10.165,71.081,4.981,62.838,4.981C45.242,4.981,32,29.247,32,44.981   C32,59.811,44.085,71.6,59.997,72.863v10.441c-1.773-0.105-3.605-0.186-5.5-0.235v-3.061h-3v3.011   c-0.499-0.005-0.994-0.011-1.5-0.011c-0.509,0-1,0.006-1.5,0.01v-3.01h-3v3.05c-1.021,0.021-2.023,0.048-3,0.082v-3.132h-3v3.258   c-2.574,0.131-4.971,0.309-7.215,0.519c1.441-2.02,2.218-4.598,2.218-7.659c0-5.984-3.389-23.35-13.766-23.35   c-9.901,0-13.234,16.035-13.234,23.35c0,5.235,1.945,8.952,5.588,10.949c-4.201,1.164-6.231,2.149-6.433,2.25   c-1.482,0.741-2.083,2.543-1.341,4.025c0.741,1.481,2.544,2.081,4.025,1.342c0.113-0.058,11.701-5.684,40.658-5.684   c25.066,0,40.794,5.752,40.946,5.809c0.348,0.131,0.703,0.192,1.054,0.192c1.214,0,2.357-0.743,2.809-1.947   C95.387,91.511,94.601,89.781,93.05,89.2z M21.997,84.733v-9.438c0.117-0.069,0.229-0.148,0.328-0.252l4.759-5   c0.571-0.601,0.548-1.55-0.052-2.121c-0.599-0.57-1.548-0.547-2.121,0.053l-2.914,3.062V65c0-0.828-0.671-1.5-1.5-1.5   s-1.5,0.672-1.5,1.5v11.888l-2.939-2.939c-0.586-0.586-1.535-0.586-2.121,0s-0.586,1.535,0,2.121l5,5   c0.018,0.018,0.042,0.023,0.061,0.04v3.578c-5.204-0.506-7.497-3.391-7.497-8.562c0-5.719,2.79-19.35,9.234-19.35   c6.444,0,9.766,13.631,9.766,19.35C30.5,81.456,27.609,84.363,21.997,84.733z M62.997,19c-1.657,0-3,1.343-3,3v18.659l-10.698-9.17   c-0.839-0.719-2.101-0.62-2.82,0.217c-0.719,0.839-0.622,2.102,0.217,2.82l13.302,11.401v11.911L44.249,45.198   c-0.862-0.693-2.121-0.553-2.812,0.308c-0.691,0.861-0.554,2.12,0.308,2.812l18.252,14.65v3.873C47.455,65.628,38,56.465,38,44.981   c0-13.116,11.368-34,24.839-34c6.143,0,12.751,4.391,18.133,12.047C85.848,29.968,89,38.585,89,44.981   c0,11.231-10.062,20.518-23.003,21.834V53.978l18.239-14.4c0.867-0.684,1.015-1.941,0.33-2.809s-1.942-1.014-2.809-0.33   L65.997,48.882V36.956l10.267-8.4c0.854-0.699,0.98-1.959,0.281-2.814c-0.7-0.855-1.958-0.979-2.814-0.281l-7.733,6.327V22   C65.997,20.343,64.654,19,62.997,19z"/><circle cx="78.997" cy="54.009" r="3"/><circle cx="52.997" cy="23.008" r="3"/></g><text x="0" y="115" fill="#000000" font-size="5px" font-weight="bold" font-family="'Helvetica Neue', Helvetica, Arial-Unicode, Arial, Sans-serif">Created by David Carrero</text><text x="0" y="120" fill="#000000" font-size="5px" font-weight="bold" font-family="'Helvetica Neue', Helvetica, Arial-Unicode, Arial, Sans-serif">from the Noun Project</text></svg>