<?xml version="1.0" encoding="UTF-8" standalone="no"?>
<!-- Generator: Adobe Illustrator 16.0.0, SVG Export Plug-In . SVG Version: 6.00 Build 0)  -->

<svg
   xmlns:dc="http://purl.org/dc/elements/1.1/"
   xmlns:cc="http://creativecommons.org/ns#"
   xmlns:rdf="http://www.w3.org/1999/02/22-rdf-syntax-ns#"
   xmlns:svg="http://www.w3.org/2000/svg"
   xmlns="http://www.w3.org/2000/svg"
   xmlns:sodipodi="http://sodipodi.sourceforge.net/DTD/sodipodi-0.dtd"
   xmlns:inkscape="http://www.inkscape.org/namespaces/inkscape"
   version="1.1"
   x="0px"
   y="0px"
   width="4.0111113in"
   height="4.0111113in"
   viewBox="0 0 361 361"
   xml:space="preserve"
   id="svg2"
   inkscape:version="0.91 r13725"
   sodipodi:docname="light_off.svg"><metadata
     id="metadata36"><rdf:RDF><cc:Work
         rdf:about=""><dc:format>image/svg+xml</dc:format><dc:type
           rdf:resource="http://purl.org/dc/dcmitype/StillImage" /><dc:title></dc:title></cc:Work></rdf:RDF></metadata><defs
     id="defs34" /><sodipodi:namedview
     pagecolor="#000000"
     bordercolor="#666666"
     borderopacity="1"
     objecttolerance="10"
     gridtolerance="10"
     guidetolerance="10"
     inkscape:pageopacity="0"
     inkscape:pageshadow="2"
     inkscape:window-width="1680"
     inkscape:window-height="987"
     id="namedview32"
     showgrid="false"
     inkscape:zoom="1"
     inkscape:cx="125.5"
     inkscape:cy="180.5"
     inkscape:window-x="-8"
     inkscape:window-y="-8"
     inkscape:window-maximized="1"
     inkscape:current-layer="svg2"
     units="in" /><g
     id="light_x5F_light"><g
       id="g5"><g
         id="g7"><path
           style="fill:#ffffff"
           d="m 155.164,234.139 c 16.227,2.771 32.454,5.541 48.681,8.312 6.306,1.077 9.006,-8.559 2.658,-9.643 -16.227,-2.771 -32.454,-5.541 -48.681,-8.312 -6.306,-1.077 -9.006,8.559 -2.658,9.643 l 0,0 z"
           id="path9"
           inkscape:connector-curvature="0" /></g></g><g
       id="g11"><g
         id="g13"><path
           style="fill:#ffffff"
           d="m 155.664,251.639 c 16.227,2.771 32.454,5.541 48.681,8.312 6.306,1.077 9.006,-8.559 2.658,-9.643 -16.227,-2.771 -32.454,-5.541 -48.681,-8.312 -6.306,-1.077 -9.006,8.559 -2.658,9.643 l 0,0 z"
           id="path15"
           inkscape:connector-curvature="0" /></g></g><g
       id="g17"><g
         id="g19"><path
           style="fill:#ffffff"
           d="m 155.664,268.639 c 16.227,2.771 32.454,5.541 48.681,8.312 6.306,1.077 9.006,-8.559 2.658,-9.643 -16.227,-2.771 -32.454,-5.541 -48.681,-8.312 -6.306,-1.077 -9.006,8.559 -2.658,9.643 l 0,0 z"
           id="path21"
           inkscape:connector-curvature="0" /></g></g><g
       id="g23"><g
         id="g25"><path
           style="fill:#ffffff"
           d="m 166.024,286.786 c 9.106,1.555 18.214,3.109 27.32,4.664 6.306,1.076 9.006,-8.56 2.658,-9.643 -9.106,-1.555 -18.213,-3.109 -27.32,-4.664 -6.305,-1.076 -9.005,8.56 -2.658,9.643 l 0,0 z"
           id="path27"
           inkscape:connector-curvature="0" /></g></g><path
       style="fill:none;stroke:#ffffff;stroke-width:10;stroke-miterlimit:10"
       d="m 222.033,188.252 c 0,13.73 -11.13,24.86 -24.859,24.86 l -33.147,0 c -13.729,0 -24.86,-11.13 -24.86,-24.86 l 0,-88.392 c 0,-13.729 11.13,-24.86 24.86,-24.86 l 33.147,0 c 13.729,0 24.859,11.13 24.859,24.86 l 0,88.392 z"
       id="path29"
       inkscape:connector-curvature="0" /></g><g
     id="Ebene_1" /><text
     xml:space="preserve"
     style="font-style:normal;font-weight:normal;font-size:40px;line-height:125%;font-family:Sans;letter-spacing:0px;word-spacing:0px;fill:#ffffff;fill-opacity:1;stroke:none;stroke-width:1px;stroke-linecap:butt;stroke-linejoin:miter;stroke-opacity:1"
     x="-1.9335938"
     y="352.58203"
     id="text4164"
     sodipodi:linespacing="125%"><tspan
       sodipodi:role="line"
       id="tspan4166"
       x="-1.9335938"
       y="352.58203"
       style="font-style:normal;font-variant:normal;font-weight:normal;font-stretch:normal;font-size:40px;line-height:125%;font-family:Arial;-inkscape-font-specification:'Arial, Normal';text-align:start;writing-mode:lr-tb;text-anchor:start">Original (Reference)</tspan></text>
</svg>